<?xml version="1.0" encoding="UTF-8" standalone="no"?>
<!DOCTYPE svg PUBLIC "-//W3C//DTD SVG 1.1//EN"
 "http://www.w3.org/Graphics/SVG/1.1/DTD/svg11.dtd">
<!-- Generated by graphviz version 7.1.0 (20230121.1956)
 -->
<!-- Title: nest Pages: 1 -->
<svg width="209pt" height="245pt"
 viewBox="0.00 0.00 208.80 244.80" xmlns="http://www.w3.org/2000/svg" xmlns:xlink="http://www.w3.org/1999/xlink">
<g id="graph0" class="graph" transform="scale(1 1) rotate(0) translate(14.4 230.4)">
<title>nest</title>
<!-- x -->
<g id="node1" class="node">
<title>x</title>
<polygon fill="none" stroke="darkslateblue" points="180,-216 0,-216 0,0 180,0 180,-216"/>
<text text-anchor="start" x="8" y="-16.3" font-family="Avenir" font-size="14.00" fill="darkslateblue"> &#160;&#160;&#160;&#160;&#160;&#160;&#160;&#160;&#160;&#160;&#160;&#160;AI SUBSETS</text>
</g>
<!-- a -->
<g id="node2" class="node">
<title>a</title>
<polygon fill="mediumpurple" stroke="mediumpurple" points="97.11,-35.23 101.81,-35.68 106.47,-36.36 111.06,-37.27 115.56,-38.39 119.96,-39.73 124.23,-41.29 128.37,-43.06 132.36,-45.03 136.17,-47.21 139.81,-49.57 143.24,-52.13 146.47,-54.86 149.49,-57.77 152.28,-60.85 154.83,-64.08 157.15,-67.46 159.22,-70.97 161.04,-74.62 162.61,-78.38 163.93,-82.26 165,-86.23 165.81,-90.28 166.38,-94.42 166.71,-98.62 166.8,-102.87 166.65,-107.16 166.28,-111.49 165.69,-115.83 164.89,-120.17 163.89,-124.51 162.69,-128.84 161.31,-133.13 159.76,-137.38 158.05,-141.58 156.18,-145.72 154.17,-149.77 152.03,-153.74 149.77,-157.62 147.4,-161.38 144.92,-165.03 142.36,-168.54 139.71,-171.92 136.99,-175.15 134.2,-178.23 131.35,-181.14 128.46,-183.87 125.51,-186.43 122.53,-188.79 119.52,-190.97 116.48,-192.94 113.41,-194.71 110.32,-196.27 107.22,-197.61 104.11,-198.73 100.98,-199.64 97.85,-200.32 94.71,-200.77 91.57,-201 88.43,-201 85.29,-200.77 82.15,-200.32 79.02,-199.64 75.89,-198.73 72.78,-197.61 69.68,-196.27 66.59,-194.71 63.52,-192.94 60.48,-190.97 57.47,-188.79 54.49,-186.43 51.54,-183.87 48.65,-181.14 45.8,-178.23 43.01,-175.15 40.29,-171.92 37.64,-168.54 35.08,-165.03 32.6,-161.38 30.23,-157.62 27.97,-153.74 25.83,-149.77 23.82,-145.72 21.95,-141.58 20.24,-137.38 18.69,-133.13 17.31,-128.84 16.11,-124.51 15.11,-120.17 14.31,-115.83 13.72,-111.49 13.35,-107.16 13.2,-102.87 13.29,-98.62 13.62,-94.42 14.19,-90.28 15,-86.23 16.07,-82.26 17.39,-78.38 18.96,-74.62 20.78,-70.97 22.85,-67.46 25.17,-64.08 27.72,-60.85 30.51,-57.77 33.53,-54.86 36.76,-52.13 40.19,-49.57 43.83,-47.21 47.64,-45.03 51.63,-43.06 55.77,-41.29 60.04,-39.73 64.44,-38.39 68.94,-37.27 73.53,-36.36 78.19,-35.68 82.89,-35.23 87.63,-35 92.37,-35 97.11,-35.23"/>
<text text-anchor="start" x="56.1" y="-170.3" font-family="Avenir" font-size="14.00" fill="thistle"> &#160;&#160;&#160;&#160;&#160;&#160;&#160;AI</text>
</g>
<!-- b -->
<g id="node3" class="node">
<title>b</title>
<polygon fill="slateblue" stroke="slateblue" points="95.32,-35.66 98.84,-35.97 102.32,-36.44 105.76,-37.07 109.13,-37.85 112.42,-38.78 115.62,-39.86 118.72,-41.08 121.7,-42.45 124.55,-43.96 127.27,-45.6 129.85,-47.37 132.26,-49.26 134.52,-51.28 136.61,-53.41 138.52,-55.64 140.25,-57.98 141.8,-60.42 143.16,-62.95 144.34,-65.55 145.33,-68.24 146.12,-70.99 146.74,-73.8 147.16,-76.66 147.41,-79.57 147.47,-82.52 147.37,-85.49 147.09,-88.49 146.65,-91.49 146.05,-94.51 145.29,-97.51 144.4,-100.51 143.37,-103.48 142.21,-106.43 140.92,-109.34 139.53,-112.2 138.02,-115.01 136.42,-117.76 134.73,-120.45 132.96,-123.05 131.1,-125.58 129.18,-128.02 127.2,-130.36 125.17,-132.59 123.08,-134.72 120.95,-136.74 118.78,-138.63 116.58,-140.4 114.35,-142.04 112.09,-143.55 109.81,-144.92 107.52,-146.14 105.21,-147.22 102.89,-148.15 100.56,-148.93 98.22,-149.56 95.87,-150.03 93.53,-150.34 91.18,-150.5 88.82,-150.5 86.47,-150.34 84.13,-150.03 81.78,-149.56 79.44,-148.93 77.11,-148.15 74.79,-147.22 72.48,-146.14 70.19,-144.92 67.91,-143.55 65.65,-142.04 63.42,-140.4 61.22,-138.63 59.05,-136.74 56.92,-134.72 54.83,-132.59 52.8,-130.36 50.82,-128.02 48.9,-125.58 47.04,-123.05 45.27,-120.45 43.58,-117.76 41.98,-115.01 40.47,-112.2 39.08,-109.34 37.79,-106.43 36.63,-103.48 35.6,-100.51 34.71,-97.51 33.95,-94.51 33.35,-91.49 32.91,-88.49 32.63,-85.49 32.53,-82.52 32.59,-79.57 32.84,-76.66 33.26,-73.8 33.88,-70.99 34.67,-68.24 35.66,-65.55 36.84,-62.95 38.2,-60.42 39.75,-57.98 41.48,-55.64 43.39,-53.41 45.48,-51.28 47.74,-49.26 50.15,-47.37 52.73,-45.6 55.45,-43.96 58.3,-42.45 61.28,-41.08 64.38,-39.86 67.58,-38.78 70.87,-37.85 74.24,-37.07 77.68,-36.44 81.16,-35.97 84.68,-35.66 88.22,-35.5 91.78,-35.5 95.32,-35.66"/>
<text text-anchor="start" x="62.69" y="-121.3" font-family="Avenir" font-size="14.00" fill="thistle"> &#160;&#160;&#160;&#160;&#160;ML</text>
</g>
<!-- c -->
<g id="node4" class="node">
<title>c</title>
<polygon fill="darkslateblue" stroke="darkslateblue" points="93.53,-37.1 95.87,-37.3 98.18,-37.59 100.46,-37.98 102.7,-38.47 104.88,-39.05 107.01,-39.73 109.06,-40.5 111.04,-41.35 112.94,-42.29 114.74,-43.32 116.45,-44.43 118.05,-45.62 119.55,-46.88 120.94,-48.21 122.21,-49.61 123.36,-51.08 124.38,-52.6 125.29,-54.18 126.07,-55.82 126.72,-57.5 127.25,-59.22 127.66,-60.98 127.94,-62.77 128.11,-64.59 128.15,-66.44 128.08,-68.3 127.89,-70.17 127.6,-72.06 127.2,-73.94 126.7,-75.83 126.11,-77.7 125.42,-79.56 124.65,-81.41 123.8,-83.23 122.88,-85.02 121.88,-86.78 120.81,-88.5 119.69,-90.18 118.51,-91.82 117.28,-93.4 116.01,-94.92 114.69,-96.39 113.34,-97.79 111.96,-99.12 110.54,-100.38 109.1,-101.57 107.64,-102.68 106.16,-103.71 104.66,-104.65 103.15,-105.5 101.63,-106.27 100.1,-106.95 98.56,-107.53 97.01,-108.02 95.46,-108.41 93.9,-108.7 92.34,-108.9 90.78,-109 89.22,-109 87.66,-108.9 86.1,-108.7 84.54,-108.41 82.99,-108.02 81.44,-107.53 79.9,-106.95 78.37,-106.27 76.85,-105.5 75.34,-104.65 73.84,-103.71 72.36,-102.68 70.9,-101.57 69.46,-100.38 68.04,-99.12 66.66,-97.79 65.31,-96.39 63.99,-94.92 62.72,-93.4 61.49,-91.82 60.31,-90.18 59.19,-88.5 58.12,-86.78 57.12,-85.02 56.2,-83.23 55.35,-81.41 54.58,-79.56 53.89,-77.7 53.3,-75.83 52.8,-73.94 52.4,-72.06 52.11,-70.17 51.92,-68.3 51.85,-66.44 51.89,-64.59 52.06,-62.77 52.34,-60.98 52.75,-59.22 53.28,-57.5 53.93,-55.82 54.71,-54.18 55.62,-52.6 56.64,-51.08 57.79,-49.61 59.06,-48.21 60.45,-46.88 61.95,-45.62 63.55,-44.43 65.26,-43.32 67.06,-42.29 68.96,-41.35 70.94,-40.5 72.99,-39.73 75.12,-39.05 77.3,-38.47 79.54,-37.98 81.82,-37.59 84.13,-37.3 86.47,-37.1 88.82,-37 91.18,-37 93.53,-37.1"/>
<text text-anchor="start" x="63.89" y="-69.3" font-family="Avenir" font-size="14.00" fill="thistle"> &#160;&#160;&#160;&#160;&#160;DL</text>
</g>
</g>
</svg>
