<?xml version="1.0" encoding="UTF-8" standalone="no"?>
<!DOCTYPE svg PUBLIC "-//W3C//DTD SVG 1.1//EN"
 "http://www.w3.org/Graphics/SVG/1.1/DTD/svg11.dtd">
<!-- Generated by graphviz version 7.1.0 (20230121.1956)
 -->
<!-- Pages: 1 -->
<svg width="172pt" height="266pt"
 viewBox="0.00 0.00 172.00 265.66" xmlns="http://www.w3.org/2000/svg" xmlns:xlink="http://www.w3.org/1999/xlink">
<g id="graph0" class="graph" transform="scale(1 1) rotate(0) translate(4 261.66)">
<g id="clust1" class="cluster">
<title>cluster_a</title>
<polygon fill="none" stroke="darkslateblue" points="8,-8 8,-249.66 156,-249.66 156,-8 8,-8"/>
<text text-anchor="middle" x="82" y="-218.46" font-family="Avenir" font-size="14.00" fill="darkslateblue">FEEDBACK LOOP:</text>
<text text-anchor="middle" x="82" y="-203.46" font-family="Avenir" font-size="14.00" fill="darkslateblue">A GENEALOGY</text>
</g>
<!-- RISKY -->
<g id="node1" class="node">
<title>RISKY</title>
<polygon fill="slateblue" stroke="slateblue" points="86.52,-120 89.52,-120.16 92.48,-120.41 95.41,-120.74 98.27,-121.15 101.07,-121.65 103.8,-122.22 106.43,-122.86 108.97,-123.58 111.4,-124.38 113.71,-125.24 115.9,-126.18 117.95,-127.18 119.87,-128.24 121.65,-129.36 123.27,-130.54 124.75,-131.78 126.07,-133.06 127.23,-134.39 128.23,-135.77 129.07,-137.19 129.75,-138.64 130.27,-140.12 130.63,-141.63 130.84,-143.16 130.89,-144.72 130.8,-146.29 130.56,-147.87 130.19,-149.45 129.68,-151.04 129.04,-152.63 128.28,-154.21 127.4,-155.78 126.41,-157.33 125.32,-158.87 124.13,-160.38 122.85,-161.86 121.49,-163.31 120.05,-164.73 118.54,-166.1 116.97,-167.43 115.33,-168.72 113.65,-169.95 111.92,-171.13 110.14,-172.26 108.33,-173.32 106.48,-174.32 104.61,-175.25 102.71,-176.12 100.79,-176.91 98.86,-177.63 96.9,-178.28 94.94,-178.85 92.96,-179.34 90.98,-179.75 88.99,-180.08 87,-180.33 85,-180.5 83,-180.58 81,-180.58 79,-180.5 77,-180.33 75.01,-180.08 73.02,-179.75 71.04,-179.34 69.06,-178.85 67.1,-178.28 65.14,-177.63 63.21,-176.91 61.29,-176.12 59.39,-175.25 57.52,-174.32 55.67,-173.32 53.86,-172.26 52.08,-171.13 50.35,-169.95 48.67,-168.72 47.03,-167.43 45.46,-166.1 43.95,-164.73 42.51,-163.31 41.15,-161.86 39.87,-160.38 38.68,-158.87 37.59,-157.33 36.6,-155.78 35.72,-154.21 34.96,-152.63 34.32,-151.04 33.81,-149.45 33.44,-147.87 33.2,-146.29 33.11,-144.72 33.16,-143.16 33.37,-141.63 33.73,-140.12 34.25,-138.64 34.93,-137.19 35.77,-135.77 36.77,-134.39 37.93,-133.06 39.25,-131.78 40.73,-130.54 42.35,-129.36 44.13,-128.24 46.05,-127.18 48.1,-126.18 50.29,-125.24 52.6,-124.38 55.03,-123.58 57.57,-122.86 60.2,-122.22 62.93,-121.65 65.73,-121.15 68.59,-120.74 71.52,-120.41 74.48,-120.16 77.48,-120 80.49,-119.92 83.51,-119.92 86.52,-120"/>
<text text-anchor="middle" x="82" y="-146.55" font-family="Avenir" font-size="14.00" fill="thistle">RISKY</text>
</g>
<!-- REJECT -->
<g id="node2" class="node">
<title>REJECT</title>
<polygon fill="slateblue" stroke="slateblue" points="87.46,-23.17 91.07,-23.33 94.65,-23.58 98.17,-23.91 101.63,-24.32 105,-24.81 108.29,-25.38 111.47,-26.03 114.53,-26.75 117.46,-27.54 120.25,-28.41 122.88,-29.34 125.37,-30.34 127.68,-31.41 129.82,-32.53 131.78,-33.71 133.56,-34.94 135.15,-36.23 136.55,-37.56 137.76,-38.94 138.77,-40.35 139.59,-41.8 140.22,-43.29 140.65,-44.8 140.91,-46.33 140.97,-47.89 140.86,-49.46 140.58,-51.04 140.12,-52.62 139.51,-54.21 138.74,-55.8 137.82,-57.38 136.76,-58.95 135.57,-60.5 134.25,-62.03 132.82,-63.54 131.28,-65.03 129.63,-66.48 127.9,-67.89 126.08,-69.27 124.18,-70.6 122.21,-71.89 120.17,-73.12 118.08,-74.3 115.94,-75.43 113.76,-76.49 111.53,-77.49 109.27,-78.42 106.98,-79.29 104.67,-80.08 102.33,-80.8 99.98,-81.45 97.61,-82.02 95.22,-82.51 92.83,-82.92 90.43,-83.25 88.03,-83.5 85.62,-83.67 83.21,-83.75 80.79,-83.75 78.38,-83.67 75.97,-83.5 73.57,-83.25 71.17,-82.92 68.78,-82.51 66.39,-82.02 64.02,-81.45 61.67,-80.8 59.33,-80.08 57.02,-79.29 54.73,-78.42 52.47,-77.49 50.24,-76.49 48.06,-75.43 45.92,-74.3 43.83,-73.12 41.79,-71.89 39.82,-70.6 37.92,-69.27 36.1,-67.89 34.37,-66.48 32.72,-65.03 31.18,-63.54 29.75,-62.03 28.43,-60.5 27.24,-58.95 26.18,-57.38 25.26,-55.8 24.49,-54.21 23.88,-52.62 23.42,-51.04 23.14,-49.46 23.03,-47.89 23.09,-46.33 23.35,-44.8 23.78,-43.29 24.41,-41.8 25.23,-40.35 26.24,-38.94 27.45,-37.56 28.85,-36.23 30.44,-34.94 32.22,-33.71 34.18,-32.53 36.32,-31.41 38.63,-30.34 41.12,-29.34 43.75,-28.41 46.54,-27.54 49.47,-26.75 52.53,-26.03 55.71,-25.38 59,-24.81 62.37,-24.32 65.83,-23.91 69.35,-23.58 72.93,-23.33 76.54,-23.17 80.18,-23.08 83.82,-23.08 87.46,-23.17"/>
<text text-anchor="middle" x="82" y="-49.72" font-family="Avenir" font-size="14.00" fill="thistle">REJECT</text>
</g>
<!-- RISKY&#45;&gt;REJECT -->
<g id="edge1" class="edge">
<title>RISKY&#45;&gt;REJECT</title>
<path fill="none" stroke="darkslateblue" d="M75.7,-119.76C75.29,-112 75.16,-103.49 75.31,-95.25"/>
<polygon fill="darkslateblue" stroke="darkslateblue" points="78.8,-95.51 75.65,-85.4 71.81,-95.27 78.8,-95.51"/>
</g>
<!-- REJECT&#45;&gt;RISKY -->
<g id="edge2" class="edge">
<title>REJECT&#45;&gt;RISKY</title>
<path fill="none" stroke="darkslateblue" d="M88.3,-83.88C88.71,-91.64 88.84,-100.15 88.69,-108.4"/>
<polygon fill="darkslateblue" stroke="darkslateblue" points="85.2,-108.14 88.35,-118.25 92.2,-108.38 85.2,-108.14"/>
</g>
</g>
</svg>
