<?xml version="1.0" encoding="UTF-8" standalone="no"?>
<!DOCTYPE svg PUBLIC "-//W3C//DTD SVG 1.1//EN"
 "http://www.w3.org/Graphics/SVG/1.1/DTD/svg11.dtd">
<!-- Generated by graphviz version 7.1.0 (20230121.1956)
 -->
<!-- Pages: 1 -->
<svg width="242pt" height="154pt"
 viewBox="0.00 0.00 242.00 153.83" xmlns="http://www.w3.org/2000/svg" xmlns:xlink="http://www.w3.org/1999/xlink">
<g id="graph0" class="graph" transform="scale(1 1) rotate(0) translate(4 149.83)">
<g id="clust1" class="cluster">
<title>cluster_a</title>
<polygon fill="none" stroke="darkslateblue" points="8,-8 8,-137.83 226,-137.83 226,-8 8,-8"/>
<text text-anchor="start" x="89.5" y="-106.63" font-family="Avenir" font-size="14.00" fill="darkslateblue">STAGE 2</text>
</g>
<!-- MEASURE RISK\l -->
<g id="node1" class="node">
<title>MEASURE RISK\l</title>
<polygon fill="darkslateblue" stroke="darkslateblue" points="125.72,-23.17 131.5,-23.33 137.21,-23.58 142.84,-23.91 148.37,-24.32 153.77,-24.81 159.02,-25.38 164.1,-26.03 168.99,-26.75 173.67,-27.54 178.13,-28.41 182.35,-29.34 186.31,-30.34 190.01,-31.41 193.43,-32.53 196.57,-33.71 199.41,-34.94 201.95,-36.23 204.19,-37.56 206.11,-38.94 207.73,-40.35 209.04,-41.8 210.05,-43.29 210.75,-44.8 211.15,-46.33 211.26,-47.89 211.08,-49.46 210.62,-51.04 209.9,-52.62 208.91,-54.21 207.68,-55.8 206.22,-57.38 204.52,-58.95 202.62,-60.5 200.51,-62.03 198.22,-63.54 195.76,-65.03 193.13,-66.48 190.36,-67.89 187.45,-69.27 184.41,-70.6 181.26,-71.89 178.01,-73.12 174.67,-74.3 171.25,-75.43 167.75,-76.49 164.2,-77.49 160.59,-78.42 156.93,-79.29 153.23,-80.08 149.49,-80.8 145.73,-81.45 141.94,-82.02 138.14,-82.51 134.31,-82.92 130.48,-83.25 126.63,-83.5 122.78,-83.67 118.93,-83.75 115.07,-83.75 111.22,-83.67 107.37,-83.5 103.52,-83.25 99.69,-82.92 95.86,-82.51 92.06,-82.02 88.27,-81.45 84.51,-80.8 80.77,-80.08 77.07,-79.29 73.41,-78.42 69.8,-77.49 66.25,-76.49 62.75,-75.43 59.33,-74.3 55.99,-73.12 52.74,-71.89 49.59,-70.6 46.55,-69.27 43.64,-67.89 40.87,-66.48 38.24,-65.03 35.78,-63.54 33.49,-62.03 31.38,-60.5 29.48,-58.95 27.78,-57.38 26.32,-55.8 25.09,-54.21 24.1,-52.62 23.38,-51.04 22.92,-49.46 22.74,-47.89 22.85,-46.33 23.25,-44.8 23.95,-43.29 24.96,-41.8 26.27,-40.35 27.89,-38.94 29.81,-37.56 32.05,-36.23 34.59,-34.94 37.43,-33.71 40.57,-32.53 43.99,-31.41 47.69,-30.34 51.65,-29.34 55.87,-28.41 60.33,-27.54 65.01,-26.75 69.9,-26.03 74.98,-25.38 80.23,-24.81 85.63,-24.32 91.16,-23.91 96.79,-23.58 102.5,-23.33 108.28,-23.17 114.09,-23.08 119.91,-23.08 125.72,-23.17"/>
<text text-anchor="start" x="68.46" y="-49.72" font-family="Avenir" font-size="14.00" fill="thistle">MEASURE RISK</text>
</g>
</g>
</svg>
