<?xml version="1.0" encoding="UTF-8" standalone="no"?>
<!DOCTYPE svg PUBLIC "-//W3C//DTD SVG 1.1//EN"
 "http://www.w3.org/Graphics/SVG/1.1/DTD/svg11.dtd">
<!-- Generated by graphviz version 7.1.0 (20230121.1956)
 -->
<!-- Pages: 1 -->
<svg width="222pt" height="154pt"
 viewBox="0.00 0.00 222.00 153.83" xmlns="http://www.w3.org/2000/svg" xmlns:xlink="http://www.w3.org/1999/xlink">
<g id="graph0" class="graph" transform="scale(1 1) rotate(0) translate(4 149.83)">
<g id="clust1" class="cluster">
<title>cluster_a</title>
<polygon fill="none" stroke="darkslateblue" points="8,-8 8,-137.83 206,-137.83 206,-8 8,-8"/>
<text text-anchor="middle" x="107" y="-106.63" font-family="Avenir" font-size="14.00" fill="darkslateblue">STAGE 1</text>
</g>
<!-- PRE&#45;SCREEN -->
<g id="node1" class="node">
<title>PRE&#45;SCREEN</title>
<polygon fill="darkslateblue" stroke="darkslateblue" points="114.74,-23.17 119.87,-23.33 124.94,-23.58 129.94,-23.91 134.85,-24.32 139.64,-24.81 144.3,-25.38 148.81,-26.03 153.15,-26.75 157.3,-27.54 161.26,-28.41 165.01,-29.34 168.53,-30.34 171.81,-31.41 174.85,-32.53 177.63,-33.71 180.16,-34.94 182.41,-36.23 184.4,-37.56 186.11,-38.94 187.54,-40.35 188.71,-41.8 189.6,-43.29 190.22,-44.8 190.58,-46.33 190.67,-47.89 190.51,-49.46 190.11,-51.04 189.47,-52.62 188.59,-54.21 187.5,-55.8 186.2,-57.38 184.69,-58.95 183,-60.5 181.14,-62.03 179.1,-63.54 176.91,-65.03 174.58,-66.48 172.12,-67.89 169.53,-69.27 166.84,-70.6 164.05,-71.89 161.16,-73.12 158.19,-74.3 155.16,-75.43 152.06,-76.49 148.9,-77.49 145.69,-78.42 142.44,-79.29 139.16,-80.08 135.85,-80.8 132.51,-81.45 129.14,-82.02 125.76,-82.51 122.37,-82.92 118.97,-83.25 115.55,-83.5 112.13,-83.67 108.71,-83.75 105.29,-83.75 101.87,-83.67 98.45,-83.5 95.03,-83.25 91.63,-82.92 88.24,-82.51 84.86,-82.02 81.49,-81.45 78.15,-80.8 74.84,-80.08 71.56,-79.29 68.31,-78.42 65.1,-77.49 61.94,-76.49 58.84,-75.43 55.81,-74.3 52.84,-73.12 49.95,-71.89 47.16,-70.6 44.47,-69.27 41.88,-67.89 39.42,-66.48 37.09,-65.03 34.9,-63.54 32.86,-62.03 31,-60.5 29.31,-58.95 27.8,-57.38 26.5,-55.8 25.41,-54.21 24.53,-52.62 23.89,-51.04 23.49,-49.46 23.33,-47.89 23.42,-46.33 23.78,-44.8 24.4,-43.29 25.29,-41.8 26.46,-40.35 27.89,-38.94 29.6,-37.56 31.59,-36.23 33.84,-34.94 36.37,-33.71 39.15,-32.53 42.19,-31.41 45.47,-30.34 48.99,-29.34 52.74,-28.41 56.7,-27.54 60.85,-26.75 65.19,-26.03 69.7,-25.38 74.36,-24.81 79.15,-24.32 84.06,-23.91 89.06,-23.58 94.13,-23.33 99.26,-23.17 104.42,-23.08 109.58,-23.08 114.74,-23.17"/>
<text text-anchor="middle" x="107" y="-49.72" font-family="Avenir" font-size="14.00" fill="thistle">PRE&#45;SCREEN</text>
</g>
</g>
</svg>
