<?xml version="1.0" encoding="UTF-8" standalone="no"?>
<!DOCTYPE svg PUBLIC "-//W3C//DTD SVG 1.1//EN"
 "http://www.w3.org/Graphics/SVG/1.1/DTD/svg11.dtd">
<!-- Generated by graphviz version 7.1.0 (20230121.1956)
 -->
<!-- Pages: 1 -->
<svg width="359pt" height="448pt"
 viewBox="0.00 0.00 359.00 447.72" xmlns="http://www.w3.org/2000/svg" xmlns:xlink="http://www.w3.org/1999/xlink">
<g id="graph0" class="graph" transform="scale(1 1) rotate(0) translate(4 443.72)">
<g id="clust1" class="cluster">
<title>cluster_a</title>
<polygon fill="none" stroke="darkslateblue" points="8,-8 8,-431.72 343,-431.72 343,-8 8,-8"/>
<text text-anchor="start" x="148" y="-400.52" font-family="Avenir" font-size="14.00" fill="darkslateblue">STAGE 3</text>
</g>
<!-- MEASURE RISK\l -->
<g id="node1" class="node">
<title>MEASURE RISK\l</title>
<polygon fill="darkslateblue" stroke="darkslateblue" points="181.72,-317.05 187.5,-317.22 193.21,-317.47 198.84,-317.8 204.37,-318.21 209.77,-318.7 215.02,-319.27 220.1,-319.91 224.99,-320.63 229.67,-321.43 234.13,-322.29 238.35,-323.23 242.31,-324.23 246.01,-325.29 249.43,-326.41 252.57,-327.59 255.41,-328.83 257.95,-330.11 260.19,-331.45 262.11,-332.82 263.73,-334.24 265.04,-335.69 266.05,-337.17 266.75,-338.68 267.15,-340.22 267.26,-341.77 267.08,-343.34 266.62,-344.92 265.9,-346.51 264.91,-348.09 263.68,-349.68 262.22,-351.26 260.52,-352.83 258.62,-354.38 256.51,-355.92 254.22,-357.43 251.76,-358.91 249.13,-360.36 246.36,-361.78 243.45,-363.15 240.41,-364.49 237.26,-365.77 234.01,-367.01 230.67,-368.19 227.25,-369.31 223.75,-370.37 220.2,-371.37 216.59,-372.31 212.93,-373.17 209.23,-373.97 205.49,-374.69 201.73,-375.33 197.94,-375.9 194.14,-376.39 190.31,-376.8 186.48,-377.14 182.63,-377.38 178.78,-377.55 174.93,-377.63 171.07,-377.63 167.22,-377.55 163.37,-377.38 159.52,-377.14 155.69,-376.8 151.86,-376.39 148.06,-375.9 144.27,-375.33 140.51,-374.69 136.77,-373.97 133.07,-373.17 129.41,-372.31 125.8,-371.37 122.25,-370.37 118.75,-369.31 115.33,-368.19 111.99,-367.01 108.74,-365.77 105.59,-364.49 102.55,-363.15 99.64,-361.78 96.87,-360.36 94.24,-358.91 91.78,-357.43 89.49,-355.92 87.38,-354.38 85.48,-352.83 83.78,-351.26 82.32,-349.68 81.09,-348.09 80.1,-346.51 79.38,-344.92 78.92,-343.34 78.74,-341.77 78.85,-340.22 79.25,-338.68 79.95,-337.17 80.96,-335.69 82.27,-334.24 83.89,-332.82 85.81,-331.45 88.05,-330.11 90.59,-328.83 93.43,-327.59 96.57,-326.41 99.99,-325.29 103.69,-324.23 107.65,-323.23 111.87,-322.29 116.33,-321.43 121.01,-320.63 125.9,-319.91 130.98,-319.27 136.23,-318.7 141.63,-318.21 147.16,-317.8 152.79,-317.47 158.5,-317.22 164.28,-317.05 170.09,-316.97 175.91,-316.97 181.72,-317.05"/>
<text text-anchor="start" x="124.46" y="-343.6" font-family="Avenir" font-size="14.00" fill="thistle">MEASURE RISK</text>
</g>
<!-- r -->
<g id="node2" class="node">
<title>r</title>
<polygon fill="tomato" stroke="tomato" points="107.46,-220.22 111.07,-220.39 114.65,-220.63 118.17,-220.96 121.63,-221.38 125,-221.87 128.29,-222.44 131.47,-223.08 134.53,-223.8 137.46,-224.6 140.25,-225.46 142.88,-226.4 145.37,-227.4 147.68,-228.46 149.82,-229.58 151.78,-230.76 153.56,-232 155.15,-233.28 156.55,-234.61 157.76,-235.99 158.77,-237.41 159.59,-238.86 160.22,-240.34 160.65,-241.85 160.91,-243.39 160.97,-244.94 160.86,-246.51 160.58,-248.09 160.12,-249.67 159.51,-251.26 158.74,-252.85 157.82,-254.43 156.76,-256 155.57,-257.55 154.25,-259.09 152.82,-260.6 151.28,-262.08 149.63,-263.53 147.9,-264.95 146.08,-266.32 144.18,-267.65 142.21,-268.94 140.17,-270.17 138.08,-271.36 135.94,-272.48 133.76,-273.54 131.53,-274.54 129.27,-275.47 126.98,-276.34 124.67,-277.13 122.33,-277.86 119.98,-278.5 117.61,-279.07 115.22,-279.56 112.83,-279.97 110.43,-280.3 108.03,-280.55 105.62,-280.72 103.21,-280.8 100.79,-280.8 98.38,-280.72 95.97,-280.55 93.57,-280.3 91.17,-279.97 88.78,-279.56 86.39,-279.07 84.02,-278.5 81.67,-277.86 79.33,-277.13 77.02,-276.34 74.73,-275.47 72.47,-274.54 70.24,-273.54 68.06,-272.48 65.92,-271.36 63.83,-270.17 61.79,-268.94 59.82,-267.65 57.92,-266.32 56.1,-264.95 54.37,-263.53 52.72,-262.08 51.18,-260.6 49.75,-259.09 48.43,-257.55 47.24,-256 46.18,-254.43 45.26,-252.85 44.49,-251.26 43.88,-249.67 43.42,-248.09 43.14,-246.51 43.03,-244.94 43.09,-243.39 43.35,-241.85 43.78,-240.34 44.41,-238.86 45.23,-237.41 46.24,-235.99 47.45,-234.61 48.85,-233.28 50.44,-232 52.22,-230.76 54.18,-229.58 56.32,-228.46 58.63,-227.4 61.12,-226.4 63.75,-225.46 66.54,-224.6 69.47,-223.8 72.53,-223.08 75.71,-222.44 79,-221.87 82.37,-221.38 85.83,-220.96 89.35,-220.63 92.93,-220.39 96.54,-220.22 100.18,-220.14 103.82,-220.14 107.46,-220.22"/>
<text text-anchor="start" x="76.97" y="-246.77" font-family="Avenir" font-size="14.00" fill="darkslateblue"> &#160;&#160;RED &#160;&#160;</text>
</g>
<!-- MEASURE RISK\l&#45;&gt;r -->
<g id="edge1" class="edge">
<title>MEASURE RISK\l&#45;&gt;r</title>
<path fill="none" stroke="tomato" d="M151.12,-317.07C144.08,-307.67 136.2,-297.14 128.84,-287.32"/>
<polygon fill="tomato" stroke="tomato" points="131.7,-285.3 122.9,-279.39 126.1,-289.49 131.7,-285.3"/>
</g>
<!-- g -->
<g id="node3" class="node">
<title>g</title>
<polygon fill="teal" stroke="teal" points="254.32,-220.22 257.84,-220.39 261.32,-220.63 264.76,-220.96 268.12,-221.38 271.41,-221.87 274.61,-222.44 277.71,-223.08 280.69,-223.8 283.55,-224.6 286.26,-225.46 288.84,-226.4 291.25,-227.4 293.51,-228.46 295.6,-229.58 297.51,-230.76 299.24,-232 300.79,-233.28 302.15,-234.61 303.33,-235.99 304.31,-237.41 305.11,-238.86 305.72,-240.34 306.15,-241.85 306.39,-243.39 306.46,-244.94 306.35,-246.51 306.07,-248.09 305.63,-249.67 305.03,-251.26 304.28,-252.85 303.39,-254.43 302.36,-256 301.19,-257.55 299.91,-259.09 298.52,-260.6 297.01,-262.08 295.41,-263.53 293.72,-264.95 291.95,-266.32 290.09,-267.65 288.18,-268.94 286.19,-270.17 284.16,-271.36 282.07,-272.48 279.94,-273.54 277.77,-274.54 275.57,-275.47 273.34,-276.34 271.09,-277.13 268.81,-277.86 266.52,-278.5 264.21,-279.07 261.89,-279.56 259.56,-279.97 257.22,-280.3 254.87,-280.55 252.53,-280.72 250.18,-280.8 247.82,-280.8 245.47,-280.72 243.13,-280.55 240.78,-280.3 238.44,-279.97 236.11,-279.56 233.79,-279.07 231.48,-278.5 229.19,-277.86 226.91,-277.13 224.66,-276.34 222.43,-275.47 220.23,-274.54 218.06,-273.54 215.93,-272.48 213.84,-271.36 211.81,-270.17 209.82,-268.94 207.91,-267.65 206.05,-266.32 204.28,-264.95 202.59,-263.53 200.99,-262.08 199.48,-260.6 198.09,-259.09 196.81,-257.55 195.64,-256 194.61,-254.43 193.72,-252.85 192.97,-251.26 192.37,-249.67 191.93,-248.09 191.65,-246.51 191.54,-244.94 191.61,-243.39 191.85,-241.85 192.28,-240.34 192.89,-238.86 193.69,-237.41 194.67,-235.99 195.85,-234.61 197.21,-233.28 198.76,-232 200.49,-230.76 202.4,-229.58 204.49,-228.46 206.75,-227.4 209.16,-226.4 211.74,-225.46 214.45,-224.6 217.31,-223.8 220.29,-223.08 223.39,-222.44 226.59,-221.87 229.88,-221.38 233.24,-220.96 236.68,-220.63 240.16,-220.39 243.68,-220.22 247.23,-220.14 250.77,-220.14 254.32,-220.22"/>
<text text-anchor="start" x="224.97" y="-246.77" font-family="Avenir" font-size="14.00" fill="thistle">GREEN</text>
</g>
<!-- MEASURE RISK\l&#45;&gt;g -->
<g id="edge2" class="edge">
<title>MEASURE RISK\l&#45;&gt;g</title>
<path fill="none" stroke="teal" d="M196.22,-317.33C204.05,-307.56 212.87,-296.55 221.04,-286.36"/>
<polygon fill="teal" stroke="teal" points="223.52,-288.85 227.05,-278.86 218.06,-284.48 223.52,-288.85"/>
</g>
<!-- sp -->
<g id="node5" class="node">
<title>sp</title>
<polygon fill="darkslateblue" stroke="darkslateblue" points="101.62,-102.09 106.01,-102.31 110.35,-102.65 114.62,-103.09 118.82,-103.65 122.92,-104.32 126.91,-105.09 130.76,-105.96 134.48,-106.94 138.03,-108.01 141.42,-109.18 144.62,-110.45 147.63,-111.8 150.44,-113.24 153.04,-114.76 155.42,-116.36 157.58,-118.03 159.51,-119.77 161.21,-121.57 162.67,-123.43 163.9,-125.35 164.89,-127.31 165.66,-129.32 166.19,-131.36 166.49,-133.44 166.57,-135.54 166.44,-137.67 166.09,-139.8 165.54,-141.95 164.8,-144.1 163.86,-146.25 162.75,-148.39 161.46,-150.51 160.02,-152.61 158.42,-154.69 156.68,-156.73 154.81,-158.74 152.81,-160.71 150.7,-162.62 148.49,-164.48 146.19,-166.29 143.8,-168.03 141.33,-169.7 138.79,-171.29 136.19,-172.81 133.54,-174.25 130.84,-175.61 128.1,-176.87 125.32,-178.04 122.51,-179.12 119.68,-180.09 116.82,-180.97 113.94,-181.74 111.05,-182.4 108.15,-182.96 105.24,-183.41 102.32,-183.74 99.39,-183.97 96.46,-184.08 93.54,-184.08 90.61,-183.97 87.68,-183.74 84.76,-183.41 81.85,-182.96 78.95,-182.4 76.06,-181.74 73.18,-180.97 70.32,-180.09 67.49,-179.12 64.68,-178.04 61.9,-176.87 59.16,-175.61 56.46,-174.25 53.81,-172.81 51.21,-171.29 48.67,-169.7 46.2,-168.03 43.81,-166.29 41.51,-164.48 39.3,-162.62 37.19,-160.71 35.19,-158.74 33.32,-156.73 31.58,-154.69 29.98,-152.61 28.54,-150.51 27.25,-148.39 26.14,-146.25 25.2,-144.1 24.46,-141.95 23.91,-139.8 23.56,-137.67 23.43,-135.54 23.51,-133.44 23.81,-131.36 24.34,-129.32 25.11,-127.31 26.1,-125.35 27.33,-123.43 28.79,-121.57 30.49,-119.77 32.42,-118.03 34.58,-116.36 36.96,-114.76 39.56,-113.24 42.37,-111.8 45.38,-110.45 48.58,-109.18 51.97,-108.01 55.52,-106.94 59.24,-105.96 63.09,-105.09 67.08,-104.32 71.18,-103.65 75.38,-103.09 79.65,-102.65 83.99,-102.31 88.38,-102.09 92.79,-101.97 97.21,-101.97 101.62,-102.09"/>
<text text-anchor="start" x="61.47" y="-146.83" font-family="Avenir" font-size="14.00" fill="thistle"> &#160;&#160;&#160;MORE</text>
<text text-anchor="start" x="61.47" y="-131.83" font-family="Avenir" font-size="14.00" fill="thistle">SCRUTINY</text>
</g>
<!-- r&#45;&gt;sp -->
<g id="edge4" class="edge">
<title>r&#45;&gt;sp</title>
<path fill="none" stroke="tomato" d="M100.03,-219.82C99.54,-212.36 98.99,-204.15 98.45,-195.95"/>
<polygon fill="tomato" stroke="tomato" points="101.94,-195.73 97.79,-185.98 94.96,-196.19 101.94,-195.73"/>
</g>
<!-- sm -->
<g id="node4" class="node">
<title>sm</title>
<polygon fill="darkslateblue" stroke="darkslateblue" points="262.62,-102.09 267.01,-102.31 271.35,-102.65 275.62,-103.09 279.82,-103.65 283.92,-104.32 287.91,-105.09 291.76,-105.96 295.48,-106.94 299.03,-108.01 302.42,-109.18 305.62,-110.45 308.63,-111.8 311.44,-113.24 314.04,-114.76 316.42,-116.36 318.58,-118.03 320.51,-119.77 322.21,-121.57 323.67,-123.43 324.9,-125.35 325.89,-127.31 326.66,-129.32 327.19,-131.36 327.49,-133.44 327.57,-135.54 327.44,-137.67 327.09,-139.8 326.54,-141.95 325.8,-144.1 324.86,-146.25 323.75,-148.39 322.46,-150.51 321.02,-152.61 319.42,-154.69 317.68,-156.73 315.81,-158.74 313.81,-160.71 311.7,-162.62 309.49,-164.48 307.19,-166.29 304.8,-168.03 302.33,-169.7 299.79,-171.29 297.19,-172.81 294.54,-174.25 291.84,-175.61 289.1,-176.87 286.32,-178.04 283.51,-179.12 280.68,-180.09 277.82,-180.97 274.94,-181.74 272.05,-182.4 269.15,-182.96 266.24,-183.41 263.32,-183.74 260.39,-183.97 257.46,-184.08 254.54,-184.08 251.61,-183.97 248.68,-183.74 245.76,-183.41 242.85,-182.96 239.95,-182.4 237.06,-181.74 234.18,-180.97 231.32,-180.09 228.49,-179.12 225.68,-178.04 222.9,-176.87 220.16,-175.61 217.46,-174.25 214.81,-172.81 212.21,-171.29 209.67,-169.7 207.2,-168.03 204.81,-166.29 202.51,-164.48 200.3,-162.62 198.19,-160.71 196.19,-158.74 194.32,-156.73 192.58,-154.69 190.98,-152.61 189.54,-150.51 188.25,-148.39 187.14,-146.25 186.2,-144.1 185.46,-141.95 184.91,-139.8 184.56,-137.67 184.43,-135.54 184.51,-133.44 184.81,-131.36 185.34,-129.32 186.11,-127.31 187.1,-125.35 188.33,-123.43 189.79,-121.57 191.49,-119.77 193.42,-118.03 195.58,-116.36 197.96,-114.76 200.56,-113.24 203.37,-111.8 206.38,-110.45 209.58,-109.18 212.97,-108.01 216.52,-106.94 220.24,-105.96 224.09,-105.09 228.08,-104.32 232.18,-103.65 236.38,-103.09 240.65,-102.65 244.99,-102.31 249.38,-102.09 253.79,-101.97 258.21,-101.97 262.62,-102.09"/>
<text text-anchor="start" x="222.47" y="-146.83" font-family="Avenir" font-size="14.00" fill="thistle"> &#160;&#160;&#160;&#160;&#160;LESS</text>
<text text-anchor="start" x="222.47" y="-131.83" font-family="Avenir" font-size="14.00" fill="thistle">SCRUTINY</text>
</g>
<!-- g&#45;&gt;sm -->
<g id="edge3" class="edge">
<title>g&#45;&gt;sm</title>
<path fill="none" stroke="teal" d="M250.97,-219.82C251.46,-212.36 252.01,-204.15 252.55,-195.95"/>
<polygon fill="teal" stroke="teal" points="256.04,-196.19 253.21,-185.98 249.06,-195.73 256.04,-196.19"/>
</g>
<!-- rej -->
<g id="node6" class="node">
<title>rej</title>
<path fill="slateblue" stroke="slateblue" d="M306.5,-66C306.5,-66 35.5,-66 35.5,-66 29.5,-66 23.5,-60 23.5,-54 23.5,-54 23.5,-35 23.5,-35 23.5,-29 29.5,-23 35.5,-23 35.5,-23 306.5,-23 306.5,-23 312.5,-23 318.5,-29 318.5,-35 318.5,-35 318.5,-54 318.5,-54 318.5,-60 312.5,-66 306.5,-66"/>
<text text-anchor="start" x="37.5" y="-40.8" font-family="Avenir" font-size="14.00" fill="thistle"> &#160;&#160;&#160;&#160;&#160;&#160;&#160;&#160;&#160;&#160;&#160;&#160;&#160;&#160;&#160;&#160;&#160;&#160;&#160;&#160;&#160;&#160;&#160;&#160;&#160;&#160;&#160;REJECT? &#160;&#160;&#160;&#160;&#160;&#160;&#160;&#160;&#160;&#160;&#160;&#160;&#160;&#160;&#160;&#160;&#160;&#160;&#160;&#160;&#160;&#160;&#160;&#160;&#160;&#160;&#160;</text>
</g>
<!-- sp&#45;&gt;rej -->
<g id="edge5" class="edge">
<title>sp&#45;&gt;rej</title>
<path fill="none" stroke="tomato" d="M124.6,-104.43C132.23,-94.74 140.33,-84.45 147.59,-75.23"/>
<polygon fill="tomato" stroke="tomato" points="150.16,-77.63 153.59,-67.61 144.66,-73.3 150.16,-77.63"/>
</g>
</g>
</svg>
