<?xml version="1.0" encoding="UTF-8" standalone="no"?>
<!DOCTYPE svg PUBLIC "-//W3C//DTD SVG 1.1//EN"
 "http://www.w3.org/Graphics/SVG/1.1/DTD/svg11.dtd">
<!-- Generated by graphviz version 7.1.0 (20230121.1956)
 -->
<!-- Pages: 1 -->
<svg width="310pt" height="424pt"
 viewBox="0.00 0.00 310.00 423.66" xmlns="http://www.w3.org/2000/svg" xmlns:xlink="http://www.w3.org/1999/xlink">
<g id="graph0" class="graph" transform="scale(1 1) rotate(0) translate(4 419.66)">
<g id="clust1" class="cluster">
<title>cluster_a</title>
<polygon fill="none" stroke="darkslateblue" points="8,-8 8,-407.66 294,-407.66 294,-8 8,-8"/>
<text text-anchor="start" x="123.5" y="-376.46" font-family="Avenir" font-size="14.00" fill="darkslateblue">STAGE 3</text>
</g>
<!-- g -->
<g id="node1" class="node">
<title>g</title>
<polygon fill="teal" stroke="teal" points="221.32,-293 224.84,-293.16 228.32,-293.41 231.76,-293.74 235.12,-294.15 238.41,-294.65 241.61,-295.22 244.71,-295.86 247.69,-296.58 250.55,-297.38 253.26,-298.24 255.84,-299.18 258.25,-300.18 260.51,-301.24 262.6,-302.36 264.51,-303.54 266.24,-304.78 267.79,-306.06 269.15,-307.39 270.33,-308.77 271.31,-310.19 272.11,-311.64 272.72,-313.12 273.15,-314.63 273.39,-316.16 273.46,-317.72 273.35,-319.29 273.07,-320.87 272.63,-322.45 272.03,-324.04 271.28,-325.63 270.39,-327.21 269.36,-328.78 268.19,-330.33 266.91,-331.87 265.52,-333.38 264.01,-334.86 262.41,-336.31 260.72,-337.73 258.95,-339.1 257.09,-340.43 255.18,-341.72 253.19,-342.95 251.16,-344.13 249.07,-345.26 246.94,-346.32 244.77,-347.32 242.57,-348.25 240.34,-349.12 238.09,-349.91 235.81,-350.63 233.52,-351.28 231.21,-351.85 228.89,-352.34 226.56,-352.75 224.22,-353.08 221.87,-353.33 219.53,-353.5 217.18,-353.58 214.82,-353.58 212.47,-353.5 210.13,-353.33 207.78,-353.08 205.44,-352.75 203.11,-352.34 200.79,-351.85 198.48,-351.28 196.19,-350.63 193.91,-349.91 191.66,-349.12 189.43,-348.25 187.23,-347.32 185.06,-346.32 182.93,-345.26 180.84,-344.13 178.81,-342.95 176.82,-341.72 174.91,-340.43 173.05,-339.1 171.28,-337.73 169.59,-336.31 167.99,-334.86 166.48,-333.38 165.09,-331.87 163.81,-330.33 162.64,-328.78 161.61,-327.21 160.72,-325.63 159.97,-324.04 159.37,-322.45 158.93,-320.87 158.65,-319.29 158.54,-317.72 158.61,-316.16 158.85,-314.63 159.28,-313.12 159.89,-311.64 160.69,-310.19 161.67,-308.77 162.85,-307.39 164.21,-306.06 165.76,-304.78 167.49,-303.54 169.4,-302.36 171.49,-301.24 173.75,-300.18 176.16,-299.18 178.74,-298.24 181.45,-297.38 184.31,-296.58 187.29,-295.86 190.39,-295.22 193.59,-294.65 196.88,-294.15 200.24,-293.74 203.68,-293.41 207.16,-293.16 210.68,-293 214.23,-292.92 217.77,-292.92 221.32,-293"/>
<text text-anchor="start" x="191.97" y="-319.55" font-family="Avenir" font-size="14.00" fill="thistle">GREEN</text>
</g>
<!-- e -->
<g id="node3" class="node">
<title>e</title>
<path fill="darkslateblue" stroke="darkslateblue" d="M230,-256.83C230,-256.83 92,-256.83 92,-256.83 86,-256.83 80,-250.83 80,-244.83 80,-244.83 80,-210.83 80,-210.83 80,-204.83 86,-198.83 92,-198.83 92,-198.83 230,-198.83 230,-198.83 236,-198.83 242,-204.83 242,-210.83 242,-210.83 242,-244.83 242,-244.83 242,-250.83 236,-256.83 230,-256.83"/>
<text text-anchor="start" x="94" y="-231.63" font-family="Avenir" font-size="14.00" fill="thistle"> &#160;&#160;&#160;&#160;&#160;&#160;&#160;&#160;EXECUTIVE &#160;&#160;&#160;&#160;&#160;&#160;</text>
<text text-anchor="start" x="94" y="-216.63" font-family="Avenir" font-size="14.00" fill="thistle"> &#160;&#160;&#160;&#160;&#160;&#160;&#160;&#160;&#160;&#160;OFFICER</text>
</g>
<!-- g&#45;&gt;e -->
<g id="edge2" class="edge">
<title>g&#45;&gt;e</title>
<path fill="none" stroke="teal" d="M199.05,-293.46C194.1,-285.04 188.6,-275.72 183.37,-266.83"/>
<polygon fill="teal" stroke="teal" points="186.47,-265.19 178.38,-258.35 180.44,-268.74 186.47,-265.19"/>
</g>
<!-- r -->
<g id="node2" class="node">
<title>r</title>
<polygon fill="tomato" stroke="tomato" points="87.46,-293 91.07,-293.16 94.65,-293.41 98.17,-293.74 101.63,-294.15 105,-294.65 108.29,-295.22 111.47,-295.86 114.53,-296.58 117.46,-297.38 120.25,-298.24 122.88,-299.18 125.37,-300.18 127.68,-301.24 129.82,-302.36 131.78,-303.54 133.56,-304.78 135.15,-306.06 136.55,-307.39 137.76,-308.77 138.77,-310.19 139.59,-311.64 140.22,-313.12 140.65,-314.63 140.91,-316.16 140.97,-317.72 140.86,-319.29 140.58,-320.87 140.12,-322.45 139.51,-324.04 138.74,-325.63 137.82,-327.21 136.76,-328.78 135.57,-330.33 134.25,-331.87 132.82,-333.38 131.28,-334.86 129.63,-336.31 127.9,-337.73 126.08,-339.1 124.18,-340.43 122.21,-341.72 120.17,-342.95 118.08,-344.13 115.94,-345.26 113.76,-346.32 111.53,-347.32 109.27,-348.25 106.98,-349.12 104.67,-349.91 102.33,-350.63 99.98,-351.28 97.61,-351.85 95.22,-352.34 92.83,-352.75 90.43,-353.08 88.03,-353.33 85.62,-353.5 83.21,-353.58 80.79,-353.58 78.38,-353.5 75.97,-353.33 73.57,-353.08 71.17,-352.75 68.78,-352.34 66.39,-351.85 64.02,-351.28 61.67,-350.63 59.33,-349.91 57.02,-349.12 54.73,-348.25 52.47,-347.32 50.24,-346.32 48.06,-345.26 45.92,-344.13 43.83,-342.95 41.79,-341.72 39.82,-340.43 37.92,-339.1 36.1,-337.73 34.37,-336.31 32.72,-334.86 31.18,-333.38 29.75,-331.87 28.43,-330.33 27.24,-328.78 26.18,-327.21 25.26,-325.63 24.49,-324.04 23.88,-322.45 23.42,-320.87 23.14,-319.29 23.03,-317.72 23.09,-316.16 23.35,-314.63 23.78,-313.12 24.41,-311.64 25.23,-310.19 26.24,-308.77 27.45,-307.39 28.85,-306.06 30.44,-304.78 32.22,-303.54 34.18,-302.36 36.32,-301.24 38.63,-300.18 41.12,-299.18 43.75,-298.24 46.54,-297.38 49.47,-296.58 52.53,-295.86 55.71,-295.22 59,-294.65 62.37,-294.15 65.83,-293.74 69.35,-293.41 72.93,-293.16 76.54,-293 80.18,-292.92 83.82,-292.92 87.46,-293"/>
<text text-anchor="start" x="56.97" y="-319.55" font-family="Avenir" font-size="14.00" fill="darkslateblue"> &#160;&#160;RED &#160;&#160;</text>
</g>
<!-- r&#45;&gt;e -->
<g id="edge1" class="edge">
<title>r&#45;&gt;e</title>
<path fill="none" stroke="tomato" d="M105.49,-294.47C113.08,-285.5 121.62,-275.4 129.69,-265.86"/>
<polygon fill="tomato" stroke="tomato" points="132.16,-268.36 135.94,-258.46 126.81,-263.84 132.16,-268.36"/>
</g>
<!-- y -->
<g id="node5" class="node">
<title>y</title>
<polygon fill="tomato" stroke="tomato" points="67.68,-23.17 70.12,-23.33 72.54,-23.58 74.92,-23.91 77.25,-24.32 79.53,-24.81 81.75,-25.38 83.9,-26.03 85.96,-26.75 87.94,-27.54 89.82,-28.41 91.61,-29.34 93.28,-30.34 94.85,-31.41 96.29,-32.53 97.62,-33.71 98.82,-34.94 99.89,-36.23 100.83,-37.56 101.65,-38.94 102.33,-40.35 102.89,-41.8 103.31,-43.29 103.61,-44.8 103.78,-46.33 103.82,-47.89 103.75,-49.46 103.55,-51.04 103.25,-52.62 102.83,-54.21 102.31,-55.8 101.69,-57.38 100.98,-58.95 100.17,-60.5 99.28,-62.03 98.31,-63.54 97.27,-65.03 96.16,-66.48 94.99,-67.89 93.76,-69.27 92.48,-70.6 91.15,-71.89 89.78,-73.12 88.36,-74.3 86.92,-75.43 85.44,-76.49 83.94,-77.49 82.41,-78.42 80.87,-79.29 79.31,-80.08 77.73,-80.8 76.14,-81.45 74.54,-82.02 72.93,-82.51 71.31,-82.92 69.69,-83.25 68.07,-83.5 66.44,-83.67 64.81,-83.75 63.19,-83.75 61.56,-83.67 59.93,-83.5 58.31,-83.25 56.69,-82.92 55.07,-82.51 53.46,-82.02 51.86,-81.45 50.27,-80.8 48.69,-80.08 47.13,-79.29 45.59,-78.42 44.06,-77.49 42.56,-76.49 41.08,-75.43 39.64,-74.3 38.22,-73.12 36.85,-71.89 35.52,-70.6 34.24,-69.27 33.01,-67.89 31.84,-66.48 30.73,-65.03 29.69,-63.54 28.72,-62.03 27.83,-60.5 27.02,-58.95 26.31,-57.38 25.69,-55.8 25.17,-54.21 24.75,-52.62 24.45,-51.04 24.25,-49.46 24.18,-47.89 24.22,-46.33 24.39,-44.8 24.69,-43.29 25.11,-41.8 25.67,-40.35 26.35,-38.94 27.17,-37.56 28.11,-36.23 29.18,-34.94 30.38,-33.71 31.71,-32.53 33.15,-31.41 34.72,-30.34 36.39,-29.34 38.18,-28.41 40.06,-27.54 42.04,-26.75 44.1,-26.03 46.25,-25.38 48.47,-24.81 50.75,-24.32 53.08,-23.91 55.46,-23.58 57.88,-23.33 60.32,-23.17 62.77,-23.08 65.23,-23.08 67.68,-23.17"/>
<text text-anchor="start" x="51.48" y="-49.72" font-family="Avenir" font-size="14.00" fill="darkslateblue">YES</text>
</g>
<!-- r&#45;&gt;y -->
<g id="edge6" class="edge">
<title>r&#45;&gt;y</title>
<path fill="none" stroke="tomato" d="M62.45,-282.87C44.69,-242.15 22.96,-176.69 35,-119.83 37.86,-106.34 43.69,-92.25 49.38,-80.62"/>
<polygon fill="tomato" stroke="tomato" points="59.17,-284.11 66.47,-291.78 65.55,-281.23 59.17,-284.11"/>
</g>
<!-- rej -->
<g id="node4" class="node">
<title>rej</title>
<path fill="slateblue" stroke="slateblue" d="M266.5,-162.83C266.5,-162.83 55.5,-162.83 55.5,-162.83 49.5,-162.83 43.5,-156.83 43.5,-150.83 43.5,-150.83 43.5,-131.83 43.5,-131.83 43.5,-125.83 49.5,-119.83 55.5,-119.83 55.5,-119.83 266.5,-119.83 266.5,-119.83 272.5,-119.83 278.5,-125.83 278.5,-131.83 278.5,-131.83 278.5,-150.83 278.5,-150.83 278.5,-156.83 272.5,-162.83 266.5,-162.83"/>
<text text-anchor="start" x="57.5" y="-137.63" font-family="Avenir" font-size="14.00" fill="thistle"> &#160;&#160;&#160;&#160;&#160;&#160;&#160;&#160;&#160;&#160;&#160;&#160;&#160;&#160;&#160;&#160;&#160;&#160;&#160;REJECT? &#160;&#160;&#160;&#160;&#160;&#160;&#160;&#160;&#160;&#160;&#160;&#160;&#160;&#160;&#160;&#160;&#160;&#160;&#160;</text>
</g>
<!-- e&#45;&gt;rej -->
<g id="edge3" class="edge">
<title>e&#45;&gt;rej</title>
<path fill="none" stroke="mediumslateblue" d="M161,-198.69C161,-190.98 161,-182.55 161,-174.63"/>
<polygon fill="mediumslateblue" stroke="mediumslateblue" points="164.5,-174.64 161,-164.64 157.5,-174.64 164.5,-174.64"/>
</g>
<!-- rej&#45;&gt;y -->
<g id="edge4" class="edge">
<title>rej&#45;&gt;y</title>
<path fill="none" stroke="tomato" d="M137.52,-119.53C125.1,-108.53 109.67,-94.87 96.15,-82.9"/>
<polygon fill="tomato" stroke="tomato" points="98.54,-80.33 88.73,-76.32 93.9,-85.57 98.54,-80.33"/>
</g>
<!-- n -->
<g id="node6" class="node">
<title>n</title>
<polygon fill="teal" stroke="teal" points="164.64,-23.17 167.05,-23.33 169.43,-23.58 171.78,-23.91 174.08,-24.32 176.34,-24.81 178.53,-25.38 180.64,-26.03 182.68,-26.75 184.64,-27.54 186.5,-28.41 188.26,-29.34 189.91,-30.34 191.45,-31.41 192.88,-32.53 194.19,-33.71 195.37,-34.94 196.43,-36.23 197.37,-37.56 198.17,-38.94 198.85,-40.35 199.39,-41.8 199.81,-43.29 200.1,-44.8 200.27,-46.33 200.32,-47.89 200.24,-49.46 200.05,-51.04 199.75,-52.62 199.34,-54.21 198.82,-55.8 198.21,-57.38 197.51,-58.95 196.71,-60.5 195.83,-62.03 194.88,-63.54 193.85,-65.03 192.76,-66.48 191.6,-67.89 190.38,-69.27 189.12,-70.6 187.8,-71.89 186.45,-73.12 185.05,-74.3 183.63,-75.43 182.17,-76.49 180.69,-77.49 179.18,-78.42 177.65,-79.29 176.11,-80.08 174.55,-80.8 172.98,-81.45 171.4,-82.02 169.82,-82.51 168.22,-82.92 166.62,-83.25 165.02,-83.5 163.41,-83.67 161.8,-83.75 160.2,-83.75 158.59,-83.67 156.98,-83.5 155.38,-83.25 153.78,-82.92 152.18,-82.51 150.6,-82.02 149.02,-81.45 147.45,-80.8 145.89,-80.08 144.35,-79.29 142.82,-78.42 141.31,-77.49 139.83,-76.49 138.37,-75.43 136.95,-74.3 135.55,-73.12 134.2,-71.89 132.88,-70.6 131.62,-69.27 130.4,-67.89 129.24,-66.48 128.15,-65.03 127.12,-63.54 126.17,-62.03 125.29,-60.5 124.49,-58.95 123.79,-57.38 123.18,-55.8 122.66,-54.21 122.25,-52.62 121.95,-51.04 121.76,-49.46 121.68,-47.89 121.73,-46.33 121.9,-44.8 122.19,-43.29 122.61,-41.8 123.15,-40.35 123.83,-38.94 124.63,-37.56 125.57,-36.23 126.63,-34.94 127.81,-33.71 129.12,-32.53 130.55,-31.41 132.09,-30.34 133.74,-29.34 135.5,-28.41 137.36,-27.54 139.32,-26.75 141.36,-26.03 143.47,-25.38 145.66,-24.81 147.92,-24.32 150.22,-23.91 152.57,-23.58 154.95,-23.33 157.36,-23.17 159.79,-23.08 162.21,-23.08 164.64,-23.17"/>
<text text-anchor="start" x="148.98" y="-49.72" font-family="Avenir" font-size="14.00" fill="thistle">NO</text>
</g>
<!-- rej&#45;&gt;n -->
<g id="edge5" class="edge">
<title>rej&#45;&gt;n</title>
<path fill="none" stroke="teal" d="M161,-119.53C161,-112.23 161,-103.74 161,-95.36"/>
<polygon fill="teal" stroke="teal" points="164.5,-95.63 161,-85.63 157.5,-95.63 164.5,-95.63"/>
</g>
</g>
</svg>
