<?xml version="1.0" encoding="UTF-8" standalone="no"?>
<!DOCTYPE svg PUBLIC "-//W3C//DTD SVG 1.1//EN"
 "http://www.w3.org/Graphics/SVG/1.1/DTD/svg11.dtd">
<!-- Generated by graphviz version 7.1.0 (20230121.1956)
 -->
<!-- Pages: 1 -->
<svg width="304pt" height="251pt"
 viewBox="0.00 0.00 304.00 250.66" xmlns="http://www.w3.org/2000/svg" xmlns:xlink="http://www.w3.org/1999/xlink">
<g id="graph0" class="graph" transform="scale(1 1) rotate(0) translate(4 246.66)">
<g id="clust1" class="cluster">
<title>cluster_a</title>
<polygon fill="none" stroke="darkslateblue" points="8,-8 8,-234.66 288,-234.66 288,-8 8,-8"/>
<text text-anchor="start" x="120.5" y="-203.46" font-family="Avenir" font-size="14.00" fill="darkslateblue">STAGE 2</text>
</g>
<!-- MEASURE RISK\l -->
<g id="node1" class="node">
<title>MEASURE RISK\l</title>
<polygon fill="darkslateblue" stroke="darkslateblue" points="156.72,-120 162.5,-120.16 168.21,-120.41 173.84,-120.74 179.37,-121.15 184.77,-121.65 190.02,-122.22 195.1,-122.86 199.99,-123.58 204.67,-124.38 209.13,-125.24 213.35,-126.18 217.31,-127.18 221.01,-128.24 224.43,-129.36 227.57,-130.54 230.41,-131.78 232.95,-133.06 235.19,-134.39 237.11,-135.77 238.73,-137.19 240.04,-138.64 241.05,-140.12 241.75,-141.63 242.15,-143.16 242.26,-144.72 242.08,-146.29 241.62,-147.87 240.9,-149.45 239.91,-151.04 238.68,-152.63 237.22,-154.21 235.52,-155.78 233.62,-157.33 231.51,-158.87 229.22,-160.38 226.76,-161.86 224.13,-163.31 221.36,-164.73 218.45,-166.1 215.41,-167.43 212.26,-168.72 209.01,-169.95 205.67,-171.13 202.25,-172.26 198.75,-173.32 195.2,-174.32 191.59,-175.25 187.93,-176.12 184.23,-176.91 180.49,-177.63 176.73,-178.28 172.94,-178.85 169.14,-179.34 165.31,-179.75 161.48,-180.08 157.63,-180.33 153.78,-180.5 149.93,-180.58 146.07,-180.58 142.22,-180.5 138.37,-180.33 134.52,-180.08 130.69,-179.75 126.86,-179.34 123.06,-178.85 119.27,-178.28 115.51,-177.63 111.77,-176.91 108.07,-176.12 104.41,-175.25 100.8,-174.32 97.25,-173.32 93.75,-172.26 90.33,-171.13 86.99,-169.95 83.74,-168.72 80.59,-167.43 77.55,-166.1 74.64,-164.73 71.87,-163.31 69.24,-161.86 66.78,-160.38 64.49,-158.87 62.38,-157.33 60.48,-155.78 58.78,-154.21 57.32,-152.63 56.09,-151.04 55.1,-149.45 54.38,-147.87 53.92,-146.29 53.74,-144.72 53.85,-143.16 54.25,-141.63 54.95,-140.12 55.96,-138.64 57.27,-137.19 58.89,-135.77 60.81,-134.39 63.05,-133.06 65.59,-131.78 68.43,-130.54 71.57,-129.36 74.99,-128.24 78.69,-127.18 82.65,-126.18 86.87,-125.24 91.33,-124.38 96.01,-123.58 100.9,-122.86 105.98,-122.22 111.23,-121.65 116.63,-121.15 122.16,-120.74 127.79,-120.41 133.5,-120.16 139.28,-120 145.09,-119.92 150.91,-119.92 156.72,-120"/>
<text text-anchor="start" x="99.46" y="-146.55" font-family="Avenir" font-size="14.00" fill="thistle">MEASURE RISK</text>
</g>
<!-- r -->
<g id="node2" class="node">
<title>r</title>
<polygon fill="tomato" stroke="tomato" points="87.46,-23.17 91.07,-23.33 94.65,-23.58 98.17,-23.91 101.63,-24.32 105,-24.81 108.29,-25.38 111.47,-26.03 114.53,-26.75 117.46,-27.54 120.25,-28.41 122.88,-29.34 125.37,-30.34 127.68,-31.41 129.82,-32.53 131.78,-33.71 133.56,-34.94 135.15,-36.23 136.55,-37.56 137.76,-38.94 138.77,-40.35 139.59,-41.8 140.22,-43.29 140.65,-44.8 140.91,-46.33 140.97,-47.89 140.86,-49.46 140.58,-51.04 140.12,-52.62 139.51,-54.21 138.74,-55.8 137.82,-57.38 136.76,-58.95 135.57,-60.5 134.25,-62.03 132.82,-63.54 131.28,-65.03 129.63,-66.48 127.9,-67.89 126.08,-69.27 124.18,-70.6 122.21,-71.89 120.17,-73.12 118.08,-74.3 115.94,-75.43 113.76,-76.49 111.53,-77.49 109.27,-78.42 106.98,-79.29 104.67,-80.08 102.33,-80.8 99.98,-81.45 97.61,-82.02 95.22,-82.51 92.83,-82.92 90.43,-83.25 88.03,-83.5 85.62,-83.67 83.21,-83.75 80.79,-83.75 78.38,-83.67 75.97,-83.5 73.57,-83.25 71.17,-82.92 68.78,-82.51 66.39,-82.02 64.02,-81.45 61.67,-80.8 59.33,-80.08 57.02,-79.29 54.73,-78.42 52.47,-77.49 50.24,-76.49 48.06,-75.43 45.92,-74.3 43.83,-73.12 41.79,-71.89 39.82,-70.6 37.92,-69.27 36.1,-67.89 34.37,-66.48 32.72,-65.03 31.18,-63.54 29.75,-62.03 28.43,-60.5 27.24,-58.95 26.18,-57.38 25.26,-55.8 24.49,-54.21 23.88,-52.62 23.42,-51.04 23.14,-49.46 23.03,-47.89 23.09,-46.33 23.35,-44.8 23.78,-43.29 24.41,-41.8 25.23,-40.35 26.24,-38.94 27.45,-37.56 28.85,-36.23 30.44,-34.94 32.22,-33.71 34.18,-32.53 36.32,-31.41 38.63,-30.34 41.12,-29.34 43.75,-28.41 46.54,-27.54 49.47,-26.75 52.53,-26.03 55.71,-25.38 59,-24.81 62.37,-24.32 65.83,-23.91 69.35,-23.58 72.93,-23.33 76.54,-23.17 80.18,-23.08 83.82,-23.08 87.46,-23.17"/>
<text text-anchor="start" x="56.97" y="-49.72" font-family="Avenir" font-size="14.00" fill="darkslateblue"> &#160;&#160;RED &#160;&#160;</text>
</g>
<!-- MEASURE RISK\l&#45;&gt;r -->
<g id="edge1" class="edge">
<title>MEASURE RISK\l&#45;&gt;r</title>
<path fill="none" stroke="tomato" d="M121.24,-110.8C116.64,-104.19 111.87,-97.33 107.31,-90.78"/>
<polygon fill="tomato" stroke="tomato" points="118.21,-112.57 126.79,-118.78 123.96,-108.57 118.21,-112.57"/>
<polygon fill="tomato" stroke="tomato" points="110.26,-88.9 101.68,-82.69 104.52,-92.89 110.26,-88.9"/>
</g>
<!-- g -->
<g id="node3" class="node">
<title>g</title>
<polygon fill="teal" stroke="teal" points="221.32,-23.17 224.84,-23.33 228.32,-23.58 231.76,-23.91 235.12,-24.32 238.41,-24.81 241.61,-25.38 244.71,-26.03 247.69,-26.75 250.55,-27.54 253.26,-28.41 255.84,-29.34 258.25,-30.34 260.51,-31.41 262.6,-32.53 264.51,-33.71 266.24,-34.94 267.79,-36.23 269.15,-37.56 270.33,-38.94 271.31,-40.35 272.11,-41.8 272.72,-43.29 273.15,-44.8 273.39,-46.33 273.46,-47.89 273.35,-49.46 273.07,-51.04 272.63,-52.62 272.03,-54.21 271.28,-55.8 270.39,-57.38 269.36,-58.95 268.19,-60.5 266.91,-62.03 265.52,-63.54 264.01,-65.03 262.41,-66.48 260.72,-67.89 258.95,-69.27 257.09,-70.6 255.18,-71.89 253.19,-73.12 251.16,-74.3 249.07,-75.43 246.94,-76.49 244.77,-77.49 242.57,-78.42 240.34,-79.29 238.09,-80.08 235.81,-80.8 233.52,-81.45 231.21,-82.02 228.89,-82.51 226.56,-82.92 224.22,-83.25 221.87,-83.5 219.53,-83.67 217.18,-83.75 214.82,-83.75 212.47,-83.67 210.13,-83.5 207.78,-83.25 205.44,-82.92 203.11,-82.51 200.79,-82.02 198.48,-81.45 196.19,-80.8 193.91,-80.08 191.66,-79.29 189.43,-78.42 187.23,-77.49 185.06,-76.49 182.93,-75.43 180.84,-74.3 178.81,-73.12 176.82,-71.89 174.91,-70.6 173.05,-69.27 171.28,-67.89 169.59,-66.48 167.99,-65.03 166.48,-63.54 165.09,-62.03 163.81,-60.5 162.64,-58.95 161.61,-57.38 160.72,-55.8 159.97,-54.21 159.37,-52.62 158.93,-51.04 158.65,-49.46 158.54,-47.89 158.61,-46.33 158.85,-44.8 159.28,-43.29 159.89,-41.8 160.69,-40.35 161.67,-38.94 162.85,-37.56 164.21,-36.23 165.76,-34.94 167.49,-33.71 169.4,-32.53 171.49,-31.41 173.75,-30.34 176.16,-29.34 178.74,-28.41 181.45,-27.54 184.31,-26.75 187.29,-26.03 190.39,-25.38 193.59,-24.81 196.88,-24.32 200.24,-23.91 203.68,-23.58 207.16,-23.33 210.68,-23.17 214.23,-23.08 217.77,-23.08 221.32,-23.17"/>
<text text-anchor="start" x="191.97" y="-49.72" font-family="Avenir" font-size="14.00" fill="thistle">GREEN</text>
</g>
<!-- MEASURE RISK\l&#45;&gt;g -->
<g id="edge2" class="edge">
<title>MEASURE RISK\l&#45;&gt;g</title>
<path fill="none" stroke="teal" d="M168.96,-120.02C175.7,-110.62 183.25,-100.09 190.29,-90.27"/>
<polygon fill="teal" stroke="teal" points="192.98,-92.52 195.97,-82.36 187.29,-88.44 192.98,-92.52"/>
</g>
</g>
</svg>
