<?xml version="1.0" encoding="UTF-8" standalone="no"?>
<!DOCTYPE svg PUBLIC "-//W3C//DTD SVG 1.1//EN"
 "http://www.w3.org/Graphics/SVG/1.1/DTD/svg11.dtd">
<!-- Generated by graphviz version 7.1.0 (20230121.1956)
 -->
<!-- Title: nest Pages: 1 -->
<svg width="245pt" height="299pt"
 viewBox="0.00 0.00 244.80 298.80" xmlns="http://www.w3.org/2000/svg" xmlns:xlink="http://www.w3.org/1999/xlink">
<g id="graph0" class="graph" transform="scale(1 1) rotate(0) translate(14.4 284.4)">
<title>nest</title>
<!-- x -->
<g id="node1" class="node">
<title>x</title>
<polygon fill="none" stroke="darkslateblue" points="216,-270 0,-270 0,0 216,0 216,-270"/>
<text text-anchor="start" x="8" y="-34.8" font-family="Avenir" font-size="14.00" fill="darkslateblue"> &#160;&#160;&#160;&#160;&#160;&#160;&#160;&#160;&#160;&#160;&#160;&#160;&#160;&#160;&#160;WHEN IS AI</text>
<text text-anchor="start" x="8" y="-19.8" font-family="Avenir" font-size="14.00" fill="darkslateblue"> &#160;&#160;&#160;&#160;&#160;&#160;&#160;&#160;[IN UK MIGRATION?]</text>
</g>
<!-- a -->
<g id="node2" class="node">
<title>a</title>
<polygon fill="mediumpurple" stroke="mediumpurple" points="115.79,-58.74 120.95,-59.21 126.06,-59.92 131.09,-60.86 136.02,-62.03 140.85,-63.43 145.54,-65.06 150.07,-66.9 154.44,-68.96 158.62,-71.22 162.61,-73.69 166.38,-76.35 169.92,-79.2 173.22,-82.23 176.28,-85.44 179.08,-88.8 181.62,-92.32 183.89,-95.99 185.89,-99.79 187.61,-103.71 189.06,-107.75 190.23,-111.89 191.12,-116.12 191.75,-120.42 192.11,-124.8 192.2,-129.23 192.04,-133.71 191.64,-138.21 190.99,-142.73 190.11,-147.27 189.01,-151.79 187.7,-156.29 186.19,-160.77 184.49,-165.2 182.61,-169.58 180.56,-173.88 178.36,-178.11 176.01,-182.25 173.53,-186.29 170.93,-190.21 168.22,-194.01 165.41,-197.68 162.5,-201.2 159.52,-204.56 156.46,-207.77 153.34,-210.8 150.16,-213.65 146.94,-216.31 143.67,-218.78 140.36,-221.04 137.03,-223.1 133.67,-224.94 130.28,-226.57 126.88,-227.97 123.47,-229.14 120.04,-230.08 116.61,-230.79 113.17,-231.26 109.72,-231.5 106.28,-231.5 102.83,-231.26 99.39,-230.79 95.96,-230.08 92.53,-229.14 89.12,-227.97 85.72,-226.57 82.33,-224.94 78.97,-223.1 75.64,-221.04 72.33,-218.78 69.06,-216.31 65.84,-213.65 62.66,-210.8 59.54,-207.77 56.48,-204.56 53.5,-201.2 50.59,-197.68 47.78,-194.01 45.07,-190.21 42.47,-186.29 39.99,-182.25 37.64,-178.11 35.44,-173.88 33.39,-169.58 31.51,-165.2 29.81,-160.77 28.3,-156.29 26.99,-151.79 25.89,-147.27 25.01,-142.73 24.36,-138.21 23.96,-133.71 23.8,-129.23 23.89,-124.8 24.25,-120.42 24.88,-116.12 25.77,-111.89 26.94,-107.75 28.39,-103.71 30.11,-99.79 32.11,-95.99 34.38,-92.32 36.92,-88.8 39.72,-85.44 42.78,-82.23 46.08,-79.2 49.62,-76.35 53.39,-73.69 57.38,-71.22 61.56,-68.96 65.93,-66.9 70.46,-65.06 75.15,-63.43 79.98,-62.03 84.91,-60.86 89.94,-59.92 95.05,-59.21 100.21,-58.74 105.4,-58.5 110.6,-58.5 115.79,-58.74"/>
<text text-anchor="start" x="77.45" y="-205.3" font-family="Avenir" font-size="14.00" fill="thistle"> &#160;&#160;&#160;&#160;&#160;&#160;AI</text>
</g>
<!-- b -->
<g id="node3" class="node">
<title>b</title>
<polygon fill="slateblue" stroke="slateblue" points="113.32,-59.69 116.84,-60.06 120.32,-60.62 123.76,-61.37 127.13,-62.3 130.42,-63.41 133.62,-64.69 136.72,-66.15 139.7,-67.78 142.55,-69.57 145.27,-71.53 147.85,-73.64 150.26,-75.89 152.52,-78.29 154.61,-80.83 156.52,-83.5 158.25,-86.29 159.8,-89.19 161.16,-92.2 162.34,-95.3 163.33,-98.5 164.12,-101.78 164.74,-105.13 165.16,-108.54 165.41,-112 165.47,-115.51 165.37,-119.06 165.09,-122.62 164.65,-126.21 164.05,-129.79 163.29,-133.38 162.4,-136.94 161.37,-140.49 160.21,-144 158.92,-147.46 157.53,-150.87 156.02,-154.22 154.42,-157.5 152.73,-160.7 150.96,-163.8 149.1,-166.81 147.18,-169.71 145.2,-172.5 143.17,-175.17 141.08,-177.71 138.95,-180.11 136.78,-182.36 134.58,-184.47 132.35,-186.43 130.09,-188.22 127.81,-189.85 125.52,-191.31 123.21,-192.59 120.89,-193.7 118.56,-194.63 116.22,-195.38 113.87,-195.94 111.53,-196.31 109.18,-196.5 106.82,-196.5 104.47,-196.31 102.13,-195.94 99.78,-195.38 97.44,-194.63 95.11,-193.7 92.79,-192.59 90.48,-191.31 88.19,-189.85 85.91,-188.22 83.65,-186.43 81.42,-184.47 79.22,-182.36 77.05,-180.11 74.92,-177.71 72.83,-175.17 70.8,-172.5 68.82,-169.71 66.9,-166.81 65.04,-163.8 63.27,-160.7 61.58,-157.5 59.98,-154.22 58.47,-150.87 57.08,-147.46 55.79,-144 54.63,-140.49 53.6,-136.94 52.71,-133.38 51.95,-129.79 51.35,-126.21 50.91,-122.62 50.63,-119.06 50.53,-115.51 50.59,-112 50.84,-108.54 51.26,-105.13 51.88,-101.78 52.67,-98.5 53.66,-95.3 54.84,-92.2 56.2,-89.19 57.75,-86.29 59.48,-83.5 61.39,-80.83 63.48,-78.29 65.74,-75.89 68.15,-73.64 70.73,-71.53 73.45,-69.57 76.3,-67.78 79.28,-66.15 82.38,-64.69 85.58,-63.41 88.87,-62.3 92.24,-61.37 95.68,-60.62 99.16,-60.06 102.68,-59.69 106.22,-59.5 109.78,-59.5 113.32,-59.69"/>
<text text-anchor="start" x="61.5" y="-147.8" font-family="Avenir" font-size="14.00" fill="thistle"> &#160;&#160;STREAMING</text>
<text text-anchor="start" x="61.5" y="-132.8" font-family="Avenir" font-size="14.00" fill="thistle"> &#160;&#160;&#160;&#160;&#160;&#160;&#160;TOOL</text>
</g>
<!-- c -->
<g id="node4" class="node">
<title>c</title>
<polygon fill="darkslateblue" stroke="darkslateblue" points="111.53,-64.08 113.87,-64.24 116.18,-64.48 118.46,-64.79 120.7,-65.18 122.88,-65.65 125.01,-66.2 127.06,-66.82 129.04,-67.51 130.94,-68.26 132.74,-69.09 134.45,-69.98 136.05,-70.94 137.55,-71.96 138.94,-73.03 140.21,-74.16 141.36,-75.34 142.38,-76.57 143.29,-77.84 144.07,-79.16 144.72,-80.51 145.25,-81.9 145.66,-83.32 145.94,-84.76 146.11,-86.23 146.15,-87.71 146.08,-89.21 145.89,-90.72 145.6,-92.24 145.2,-93.76 144.7,-95.28 144.11,-96.79 143.42,-98.29 142.65,-99.77 141.8,-101.24 140.88,-102.68 139.88,-104.1 138.81,-105.49 137.69,-106.84 136.51,-108.16 135.28,-109.43 134.01,-110.66 132.69,-111.84 131.34,-112.97 129.96,-114.04 128.54,-115.06 127.1,-116.02 125.64,-116.91 124.16,-117.74 122.66,-118.49 121.15,-119.18 119.63,-119.8 118.1,-120.35 116.56,-120.82 115.01,-121.21 113.46,-121.52 111.9,-121.76 110.34,-121.92 108.78,-122 107.22,-122 105.66,-121.92 104.1,-121.76 102.54,-121.52 100.99,-121.21 99.44,-120.82 97.9,-120.35 96.37,-119.8 94.85,-119.18 93.34,-118.49 91.84,-117.74 90.36,-116.91 88.9,-116.02 87.46,-115.06 86.04,-114.04 84.66,-112.97 83.31,-111.84 81.99,-110.66 80.72,-109.43 79.49,-108.16 78.31,-106.84 77.19,-105.49 76.12,-104.1 75.12,-102.68 74.2,-101.24 73.35,-99.77 72.58,-98.29 71.89,-96.79 71.3,-95.28 70.8,-93.76 70.4,-92.24 70.11,-90.72 69.92,-89.21 69.85,-87.71 69.89,-86.23 70.06,-84.76 70.34,-83.32 70.75,-81.9 71.28,-80.51 71.93,-79.16 72.71,-77.84 73.62,-76.57 74.64,-75.34 75.79,-74.16 77.06,-73.03 78.45,-71.96 79.95,-70.94 81.55,-69.98 83.26,-69.09 85.06,-68.26 86.96,-67.51 88.94,-66.82 90.99,-66.2 93.12,-65.65 95.3,-65.18 97.54,-64.79 99.82,-64.48 102.13,-64.24 104.47,-64.08 106.82,-64 109.18,-64 111.53,-64.08"/>
<text text-anchor="start" x="82.5" y="-88.8" font-family="Avenir" font-size="14.00" fill="thistle"> &#160;&#160;1980s</text>
<text text-anchor="start" x="82.5" y="-73.8" font-family="Avenir" font-size="14.00" fill="thistle"> &#160;&#160;LOOP</text>
</g>
</g>
</svg>
